# xmcd CD database file generated by OrangeCD 5.2
#
# Track frame offsets:
#	150
#	25093
#	36988
#	57478
#	71877
#	86268
#	103750
#	121148
#	138630
#	152880
#	165909
#
# Disc length: 2498 seconds
#
# Revision: 0
# Processed by: cddbd v1.5.1PL0 Copyright (c) Steve Scherf et al.
# Submitted via: OrangeCD 5.2
#
DISCID=9109c00b
DTITLE=The Notting Hillbillies - Missing, Presumed Having a Good Time
DYEAR=1900
DGENRE=Country
TTITLE0=Railroad Worksong
TTITLE1=Bewildered
TTITLE2=Your Own Sweet Way
TTITLE3=Run Me Down
TTITLE4=One Way Gal
TTITLE5=Blues Stay Away From Me
TTITLE6=Will You Miss Me
TTITLE7=Please Baby
TTITLE8=Weapon of Prayer
TTITLE9=That's Where I Belong
TTITLE10=Feel Like Going Home
EXTD=
EXTT0=
EXTT1=
EXTT2=
EXTT3=
EXTT4=
EXTT5=
EXTT6=
EXTT7=
EXTT8=
EXTT9=
EXTT10=
PLAYORDER=
